<?xml version="1.0" encoding="UTF-8"?>
<svg width="24px" height="24px" viewBox="0 0 24 24" version="1.1" xmlns="http://www.w3.org/2000/svg" xmlns:xlink="http://www.w3.org/1999/xlink">
    <title>icon/pick</title>
    <g id="Symbols" stroke="none" stroke-width="1" fill="none" fill-rule="evenodd">
        <g id="icon/pick">
            <path d="M16,2 C16.5522847,2 17,2.44771525 17,3 L17,3 L17,6 C17,6.55228475 16.5522847,7 16,7 L16,7 L21.55,12.55 L21.55,12.6 C21.8048763,12.8655944 21.8932301,13.2497411 21.78,13.6 L21.78,13.6 L19.3,20.41 C19.1859179,20.755673 18.8930114,21.0120514 18.535276,21.0793559 C18.1775405,21.1466603 17.8114888,21.0142586 17.5795835,20.7336798 C17.3476781,20.453101 17.2865541,20.068669 17.42,19.73 L17.42,19.73 L19.58,13.81 C19.6435797,13.6280265 19.5968915,13.4257109 19.46,13.29 L19.46,13.29 L13.17,7 L10.83,7 L4.54,13.29 C4.40195515,13.4253621 4.35859623,13.6303315 4.43,13.81 L4.43,13.81 L6.58,19.73 C6.74963507,20.2440008 6.4795127,20.799673 5.97051558,20.9837784 C5.46151846,21.1678837 4.8984283,20.9135862 4.7,20.41 L4.7,20.41 L2.22,13.55 C2.10676992,13.1997411 2.19512366,12.8155944 2.45,12.55 L2.45,12.55 L8,7 L7.88337887,6.99327227 C7.38604019,6.93550716 7,6.51283584 7,6 L7,6 L7,3 C7,2.44771525 7.44771525,2 8,2 L8,2 Z M16.06,14 C16.3030053,14 16.5,14.1969947 16.5,14.44 L16.5,14.44 L16.5,20.56 C16.5,20.6766953 16.453643,20.788611 16.371127,20.871127 C16.288611,20.953643 16.1766953,21 16.06,21 L16.06,21 L7.94,21 C7.69699471,21 7.5,20.8030053 7.5,20.56 L7.5,20.56 L7.5,14.44 C7.5,14.1969947 7.69699471,14 7.94,14 L7.94,14 Z M10.25,15.5 L9,15.5 L9,19.5 L15,19.5 L15,15.5 L13.69,15.5 L13.69,16.69 C13.6903461,16.8627509 13.6014932,17.0234428 13.4550005,17.1150008 C13.3085077,17.2065587 13.1251301,17.2160109 12.97,17.14 L12.97,17.14 L11.97,16.62 L10.97,17.14 C10.8148699,17.2160109 10.6314923,17.2065587 10.4849995,17.1150008 C10.3385068,17.0234428 10.2496539,16.8627509 10.25,16.69 L10.25,16.69 L10.25,15.5 Z M15.55,3.6 L8.55,3.6 L8.55,5.6 L15.55,5.6 L15.55,3.6 Z" id="Combined-Shape" fill="#4E5E6F" fill-rule="nonzero"></path>
            <rect id="Bounds" x="0" y="0" width="24" height="24"></rect>
        </g>
    </g>
</svg>