<?xml version="1.0" encoding="UTF-8"?>
<svg width="24px" height="24px" viewBox="0 0 24 24" version="1.1" xmlns="http://www.w3.org/2000/svg" xmlns:xlink="http://www.w3.org/1999/xlink">
    <title>icon/puzzle</title>
    <g id="Symbols" stroke="none" stroke-width="1" fill="none" fill-rule="evenodd">
        <g id="icon/puzzle">
            <rect id="Bounds" x="0" y="0" width="24" height="24"></rect>
            <path d="M11.5,4 C11.7761424,4 12,4.22385763 12,4.5 L12,6.5 L18,6.5 L18,12.5 L20,12.5 C20.2761424,12.5 20.5,12.7238576 20.5,13 C20.5,13.2761424 20.2761424,13.5 20,13.5 L18,13.5 L18,19.5 L15.88,19.5 C15.1771612,17.6940243 13.4379191,16.5045821 11.5,16.5045821 C9.56208089,16.5045821 7.82283875,17.6940243 7.12,19.5 L5,19.5 L5,17.38 C6.80597568,16.6771612 7.99541794,14.9379191 7.99541794,13 C7.99541794,11.0620809 6.80597568,9.32283875 5,8.62 L5,6.5 L11,6.5 L11,4.5 C11,4.22385763 11.2238576,4 11.5,4 M11.5,2 C10.1192881,2 9,3.11928813 9,4.5 L5,4.5 C3.8954305,4.5 3,5.3954305 3,6.5 L3,10.3 L3.3,10.3 C4.79116882,10.3 6,11.5088312 6,13 C6,14.4911688 4.79116882,15.7 3.3,15.7 L3,15.7 L3,19.5 C3,20.6045695 3.8954305,21.5 5,21.5 L8.8,21.5 L8.8,21.2 C8.8,19.7088312 10.0088312,18.5 11.5,18.5 C12.9911688,18.5 14.2,19.7088312 14.2,21.2 L14.2,21.5 L18,21.5 C19.1045695,21.5 20,20.6045695 20,19.5 L20,15.5 C21.3807119,15.5 22.5,14.3807119 22.5,13 C22.5,11.6192881 21.3807119,10.5 20,10.5 L20,6.5 C20,5.3954305 19.1045695,4.5 18,4.5 L14,4.5 C14,3.11928813 12.8807119,2 11.5,2" id="Shape" fill="#4E5E6F" fill-rule="nonzero"></path>
        </g>
    </g>
</svg>